<svg xmlns="http://www.w3.org/2000/svg" width="1536" height="2048" viewBox="0 0 1536 2048">
  <defs>
    <linearGradient id="bg" x1="0" y1="0" x2="0" y2="1">
      <stop offset="0%" stop-color="#0a1f13"/>
      <stop offset="55%" stop-color="#0a2817"/>
      <stop offset="100%" stop-color="#08190f"/>
    </linearGradient>
    <filter id="glow" x="-20%" y="-20%" width="140%" height="140%">
      <feGaussianBlur stdDeviation="2.4" result="blur"/>
      <feMerge>
        <feMergeNode in="blur"/>
        <feMergeNode in="SourceGraphic"/>
      </feMerge>
    </filter>
    <pattern id="scan" width="8" height="8" patternUnits="userSpaceOnUse">
      <rect width="8" height="2" fill="rgba(0,0,0,0.18)"/>
    </pattern>
    <style>
      .minor { stroke: #4dbb75; stroke-width: 8; fill: none; opacity: 0.72; stroke-linecap: round; }
      .major { stroke: #7ded9c; stroke-width: 14; fill: none; opacity: 0.9; stroke-linecap: round; }
      .river { stroke: #8ff7a8; stroke-width: 16; fill: none; opacity: 0.78; }
      .blocks { fill: #1a4d33; opacity: 0.36; }
      .marker { fill: #d7ffb8; filter: url(#glow); }
      .label { fill: #d7ffb8; font-family: "IBM Plex Mono", "Courier New", monospace; font-size: 36px; letter-spacing: 0.18em; }
    </style>
  </defs>

  <rect width="1536" height="2048" fill="url(#bg)"/>

  <!-- block texture -->
  <g class="blocks">
    <rect x="84" y="310" width="120" height="95"/>
    <rect x="236" y="304" width="128" height="108"/>
    <rect x="415" y="307" width="132" height="104"/>
    <rect x="72" y="472" width="150" height="112"/>
    <rect x="258" y="476" width="145" height="112"/>
    <rect x="432" y="470" width="140" height="110"/>
    <rect x="860" y="358" width="116" height="96"/>
    <rect x="1005" y="350" width="128" height="100"/>
    <rect x="872" y="532" width="116" height="98"/>
    <rect x="1026" y="522" width="126" height="100"/>
    <rect x="102" y="760" width="125" height="110"/>
    <rect x="258" y="760" width="130" height="112"/>
    <rect x="432" y="768" width="140" height="112"/>
    <rect x="620" y="780" width="126" height="110"/>
    <rect x="880" y="780" width="122" height="108"/>
    <rect x="1048" y="782" width="128" height="110"/>
    <rect x="96" y="966" width="150" height="126"/>
    <rect x="286" y="972" width="152" height="128"/>
    <rect x="478" y="976" width="150" height="126"/>
    <rect x="860" y="1006" width="128" height="118"/>
    <rect x="1028" y="1018" width="136" height="120"/>
    <rect x="1246" y="980" width="132" height="122"/>
    <rect x="90" y="1248" width="152" height="132"/>
    <rect x="284" y="1264" width="156" height="132"/>
    <rect x="492" y="1248" width="152" height="130"/>
    <rect x="856" y="1260" width="136" height="124"/>
    <rect x="1022" y="1272" width="144" height="128"/>
    <rect x="1246" y="1244" width="132" height="126"/>
    <rect x="1306" y="488" width="122" height="98"/>
    <rect x="1318" y="640" width="116" height="96"/>
    <rect x="1298" y="792" width="126" height="104"/>
    <rect x="1308" y="1468" width="124" height="114"/>
    <rect x="1288" y="1638" width="132" height="116"/>
  </g>

  <!-- city grid -->
  <g filter="url(#glow)">
    <path class="minor" d="M80 160 L80 1830"/>
    <path class="minor" d="M170 220 L170 1780"/>
    <path class="minor" d="M245 130 L245 1880"/>
    <path class="minor" d="M338 100 L338 1800"/>
    <path class="minor" d="M430 190 L430 1720"/>
    <path class="minor" d="M560 120 L560 1640"/>
    <path class="minor" d="M650 190 L650 1520"/>
    <path class="minor" d="M850 130 L850 1480"/>
    <path class="minor" d="M940 160 L940 1400"/>
    <path class="minor" d="M1030 140 L1030 1560"/>
    <path class="minor" d="M1125 90 L1125 1680"/>
    <path class="minor" d="M1280 170 L1280 1820"/>
    <path class="minor" d="M1400 150 L1400 1860"/>

    <path class="minor" d="M30 250 L1490 250"/>
    <path class="minor" d="M70 360 L1450 360"/>
    <path class="minor" d="M20 470 L1510 470"/>
    <path class="minor" d="M40 590 L1490 590"/>
    <path class="minor" d="M70 720 L1460 720"/>
    <path class="minor" d="M25 980 L1510 980"/>
    <path class="minor" d="M70 1120 L1480 1120"/>
    <path class="minor" d="M40 1260 L1460 1260"/>
    <path class="minor" d="M20 1510 L1490 1510"/>
    <path class="minor" d="M90 1760 L1470 1760"/>
  </g>

  <!-- central artery -->
  <path class="major" filter="url(#glow)" d="M40 860 L1498 860"/>
  <path class="major" filter="url(#glow)" d="M40 904 L1498 904"/>

  <!-- curved lower ring -->
  <path class="major" filter="url(#glow)" d="M35 1285 C350 1240, 760 1230, 1030 1268 C1240 1298, 1378 1300, 1492 1276"/>

  <!-- river / canal -->
  <path class="river" filter="url(#glow)" d="M742 70 C760 250, 736 408, 760 564 C780 700, 764 862, 748 1010 C730 1170, 780 1320, 742 1492"/>
  <path class="river" filter="url(#glow)" d="M770 60 C792 242, 772 404, 792 560 C808 706, 790 860, 774 1012 C756 1174, 808 1316, 770 1498"/>

  <!-- right-side elevated axis -->
  <path class="major" filter="url(#glow)" d="M1240 260 L1125 1740"/>
  <path class="major" filter="url(#glow)" d="M1278 250 L1160 1770"/>

  <!-- diagonal connectors -->
  <path class="minor" filter="url(#glow)" d="M670 540 L735 690 L735 1420"/>
  <path class="minor" filter="url(#glow)" d="M820 1600 L980 1410 L1130 1220"/>
  <path class="minor" filter="url(#glow)" d="M960 1620 L1090 1470 L1230 1320"/>
  <path class="minor" filter="url(#glow)" d="M1080 1640 L1220 1490 L1338 1360"/>
  <path class="minor" filter="url(#glow)" d="M210 1500 L420 1500 L520 1570"/>

  <!-- Safehouse marker -->
  <g transform="translate(870,1180)">
    <circle class="marker" r="14"/>
    <circle cx="0" cy="0" r="30" fill="none" stroke="#d7ffb8" stroke-width="3" opacity="0.7"/>
    <text class="label" x="42" y="12">SAFEHOUSE</text>
  </g>

  <!-- scanlines -->
  <rect width="1536" height="2048" fill="url(#scan)" opacity="0.4"/>
  <rect width="1536" height="2048" fill="none" stroke="#000" stroke-width="40" opacity="0.38"/>
</svg>
